<svg xmlns="http://www.w3.org/2000/svg"  viewBox="0 0 48 48" width="50px" height="50px"><path fill="#00bcd4" d="M8 24c2 1 5 3.838 5 7 0 2 0 8 0 8 0 2.58 1.479 4.42 3.166 4.885C16.645 44.017 17 44.416 17 44.913l0 0c0 .609-.516 1.091-1.124 1.053C11.277 45.683 7 43.625 7 39c0 0 0-6 0-8 0-2.812-2.372-5.367-4.303-5.899C2.291 24.99 2 24.645 2 24.224l0-.355c0-.475.335-.858.789-.998C4.703 22.286 7 19.767 7 17c0-2 0-8 0-8 0-4.625 4.277-6.683 8.876-6.966C16.484 1.997 17 2.478 17 3.087v0c0 .497-.355.895-.834 1.027C14.479 4.58 13 6.42 13 9c0 0 0 6 0 8C13 20.162 10 23 8 24M40 24c-2-1-5-3.838-5-7 0-2 0-8 0-8 0-2.58-1.479-4.42-3.166-4.885C31.355 3.983 31 3.584 31 3.087v0c0-.609.516-1.091 1.124-1.053C36.723 2.317 41 4.375 41 9c0 0 0 6 0 8 0 2.812 2.372 5.367 4.303 5.899C45.709 23.01 46 23.355 46 23.776v.355c0 .475-.335.858-.789.998C43.297 25.715 41 28.233 41 31c0 2 0 8 0 8 0 4.625-4.277 6.683-8.876 6.966C31.516 46.003 31 45.522 31 44.913v0c0-.497.355-.895.834-1.027C33.521 43.42 35 41.58 35 39c0 0 0-6 0-8C35 27.838 38 25 40 24"/></svg>