<svg xmlns="http://www.w3.org/2000/svg"  viewBox="0 0 64 64" width="64px" height="64px"><linearGradient id="99sY8AF4B94GlfVlVNXvva" x1="52.5" x2="52.5" y1="14" y2="41.758" gradientUnits="userSpaceOnUse" spreadMethod="reflect"><stop offset="0" stop-color="#6dc7ff"/><stop offset="1" stop-color="#e6abff"/></linearGradient><path fill="url(#99sY8AF4B94GlfVlVNXvva)" d="M42.259,17.947c4.148,2.632,6.87,7.237,6.87,12.5c0,1.184-0.13,2.368-0.389,3.553 c1.556-1.316,3.5-2.105,5.574-2.105c1.426,0,2.722,0.395,3.889,0.921l-0.778-0.789l5.056,0.132l-4.407-2.5L63,28.474l-4.926-1.184 l4.407-2.5l-5.056,0l3.63-3.553l-4.796,1.447l2.593-4.342l-4.278,2.632L56,16.105l-3.5,3.684l0.13-5.132L50.037,19l-1.296-5 l-1.167,5l-2.463-4.474l0.13,5.132L42,16.895L42.259,17.947z"/><linearGradient id="99sY8AF4B94GlfVlVNXvvb" x1="32" x2="32" y1="15" y2="46.007" gradientUnits="userSpaceOnUse" spreadMethod="reflect"><stop offset="0" stop-color="#1a6dff"/><stop offset="1" stop-color="#c822ff"/></linearGradient><path fill="none" stroke="url(#99sY8AF4B94GlfVlVNXvvb)" stroke-linejoin="round" stroke-miterlimit="10" stroke-width="2" d="M62,45 c0.518-1.186,1-2.636,1-3.955c0-4.877-3.883-8.832-8.672-8.832c-2.2,0-4.142,0.791-5.566,2.109c0.259-1.186,0.388-2.241,0.388-3.559 C49.15,22.591,42.678,16,34.653,16c-6.601,0-12.167,4.614-13.85,10.809c-1.165-1.055-2.589-1.714-4.271-1.714 c-3.495,0-6.342,2.9-6.342,6.459c0,0.659,0.129,1.45,0.388,2.109c-0.259,0-0.647,0-0.906,0C4.883,33.664,1,37.618,1,42.495 C1,43.418,1.129,44.209,1.388,45C3.68,44.996,28.504,45.018,47,45C55.625,44.992,62,45,62,45z"/><linearGradient id="99sY8AF4B94GlfVlVNXvvc" x1="42" x2="42" y1="14.375" y2="41.816" gradientUnits="userSpaceOnUse" spreadMethod="reflect"><stop offset="0" stop-color="#6dc7ff"/><stop offset="1" stop-color="#e6abff"/></linearGradient><path fill="url(#99sY8AF4B94GlfVlVNXvvc)" d="M27 41L50 35.125 57 42 50.45 31.182 35 28 46.75 33z"/></svg>