<svg xmlns="http://www.w3.org/2000/svg"  viewBox="0 0 40 40" width="40px" height="40px" baseProfile="basic"><polygon fill="#788b9c" points="19.313,11.495 13.406,1.5 7.5,11.495"/><polygon fill="#c5d4de" points="31.125,11.495 25.219,1.5 19.313,11.495"/><polygon fill="#788b9c" points="13.406,1.5 19.313,11.495 25.219,1.5"/><polygon fill="#788b9c" points="7.5,11.495 13.406,21.49 19.313,11.495"/><path fill="#36404d" d="M13.406,22.473L6.919,11.495L13.121,1h12.383l6.498,10.995H19.598L13.406,22.473z M8.081,11.495	l5.326,9.013l5.621-9.513h11.221L24.934,2H13.691L8.081,11.495z"/><rect width="11.553" height="1" x="16.319" y="6.225" fill="#36404d" transform="rotate(-59.881 22.095 6.725)"/><rect width="1" height="11.61" x="15.859" y=".693" fill="#36404d" transform="rotate(-30.579 16.36 6.498)"/><rect width="11.699" height="1" x="7.5" y="10.995" fill="#36404d"/><polygon fill="#788b9c" points="19.688,28.505 25.594,38.5 31.5,28.505"/><polygon fill="#c5d4de" points="7.875,28.505 13.781,38.5 19.688,28.505"/><polygon fill="#788b9c" points="25.594,38.5 19.687,28.505 13.781,38.5"/><polygon fill="#788b9c" points="31.5,28.505 25.594,18.51 19.688,28.505"/><path fill="#36404d" d="M25.879,39H13.496L6.999,28.005h12.404l6.191-10.478l6.487,10.978L25.879,39z M14.066,38h11.242	l5.611-9.495l-5.326-9.013l-5.621,9.513H8.751L14.066,38z"/><rect width="11.553" height="1" x="11.129" y="32.775" fill="#36404d" transform="rotate(-59.881 16.905 33.274)"/><rect width="1" height="11.61" x="22.141" y="27.698" fill="#36404d" transform="rotate(-30.579 22.642 33.504)"/><rect width="11.699" height="1" x="19.801" y="28.005" fill="#36404d"/></svg>